<?xml version="1.0" encoding="UTF-8" standalone="no"?>
<svg width="330px" height="332px" viewBox="0 0 330 332" version="1.1" xmlns="http://www.w3.org/2000/svg" xmlns:xlink="http://www.w3.org/1999/xlink" xmlns:sketch="http://www.bohemiancoding.com/sketch/ns">
    <!-- Generator: Sketch 3.3 (11970) - http://www.bohemiancoding.com/sketch -->
    <title>90</title>
    <desc>Created with Sketch.</desc>
    <defs>
        <path d="M142,284 C220.424434,284 284,220.424434 284,142 C284,63.5755655 220.424434,0 142,0 C63.5755655,0 0,63.5755655 0,142 C0,220.424434 63.5755655,284 142,284 Z M142,257 C205.512746,257 257,205.512746 257,142 C257,78.4872538 205.512746,27 142,27 C78.4872538,27 27,78.4872538 27,142 C27,205.512746 78.4872538,257 142,257 Z" id="path-1"></path>
    </defs>
    <g id="Page-1" stroke="none" stroke-width="1" fill="none" fill-rule="evenodd" sketch:type="MSPage">
        <g id="90" sketch:type="MSArtboardGroup">
            <g id="Pechart" sketch:type="MSLayerGroup" transform="translate(25.000000, 25.000000)">
                <g id="Single-pie-chart-with-thin-line">
                    <g id="Level-one-Copy" transform="translate(12.000000, 13.000000)" fill="#FFFFFF" sketch:type="MSShapeGroup">
                        <path d="M129.5,259 C201.020875,259 259,201.020875 259,129.5 C259,57.9791249 201.020875,0 129.5,0 C57.9791249,0 0,57.9791249 0,129.5 C0,201.020875 57.9791249,259 129.5,259 Z M129.018587,257.074349 C199.741832,257.074349 257.074349,199.741832 257.074349,129.018587 C257.074349,58.2953428 199.741832,0.962825279 129.018587,0.962825279 C58.2953428,0.962825279 0.962825279,58.2953428 0.962825279,129.018587 C0.962825279,199.741832 58.2953428,257.074349 129.018587,257.074349 Z" id="Oval-7"></path>
                    </g>
                    <g id="Outter">
                        <mask id="mask-2" sketch:name="Oval 9" fill="white">
                            <use xlink:href="#path-1"></use>
                        </mask>
                        <use id="Oval-9" sketch:type="MSShapeGroup" xlink:href="#path-1"></use>
                        <path d="M141.896842,-24.7018825 L145.710166,139.655066 L38.8695652,-11.9926092 C38.8695652,-11.9926092 -36.574042,25.0085984 -45.1333225,120.587928 C-51.580115,192.577635 -6.14865378,490.714499 -6.14865378,490.714499 L403.999999,120.587928 L366.220245,-11.9926092 L141.896842,-24.7018825 Z" id="Path-1" fill="#FFFFFF" sketch:type="MSShapeGroup" mask="url(#mask-2)"></path>
                    </g>
                </g>
            </g>
            <text id="90%" sketch:type="MSTextLayer" font-family="Arial" font-size="50" font-weight="normal" fill="#FFFFFF">
                <tspan x="117" y="183">90%</tspan>
            </text>
        </g>
    </g>
</svg>